# xmcd CD database file generated by OrangeCD 5.0
#
# Track frame offsets:
#	182
#	26300
#	45732
#	60060
#	86825
#	104630
#	126905
#	148652
#	165745
#
# Disc length: 2479 seconds
#
# Revision: 0
# Processed by: cddbd v1.4PL0 Copyright (c) Steve Scherf et al.
# Submitted via: OrangeCD 5.0
#
DISCID=7409ad09
DTITLE=Groundhogs - Groundhogs Best 1969 - 1972 [CD1]
DYEAR=1972
DGENRE=Blues
TTITLE0=Groundhog
TTITLE1=Strange Town
TTITLE2=Bog Roll Blues
TTITLE3=You Had a Lesson
TTITLE4=Express Man
TTITLE5=Eccentric Man
TTITLE6=Earth Is Not Room Enough
TTITLE7=BDD
TTITLE8=Split Part 1
EXTD=
EXTT0=
EXTT1=
EXTT2=
EXTT3=
EXTT4=
EXTT5=
EXTT6=
EXTT7=
EXTT8=
PLAYORDER=
